<svg viewBox="0 0 400 81" fill="none" xmlns="http://www.w3.org/2000/svg">
<path d="M122.538 32.5308V24.3409H108.068V79.5314H122.989V54.2911C122.989 42.4019 129.606 38.6995 137.236 38.6995C138.581 38.6995 140.039 38.8107 141.724 39.1476V24.1153C140.602 24.0041 139.48 23.8898 138.247 23.8898C133.531 23.8928 125.9 25.2372 122.538 32.5308Z" fill="white"/>
<path d="M303.644 24.3409H288.726V79.5314H303.644V24.3409Z" fill="white"/>
<path d="M334.493 0H319.572V79.5344H334.493V0Z" fill="white"/>
<path d="M385.082 24.3409V56.4236C385.082 62.8179 381.268 67.3053 374.648 67.3053C367.695 67.3053 364.552 62.3697 364.552 56.201V24.3409H349.634V59.2267C349.634 71.2303 357.261 80.9901 370.609 80.9901C376.402 80.9901 382.147 78.7253 385.193 73.6394V79.5314H400V24.3409H385.082Z" fill="white"/>
<path d="M59.2899 0L44.3629 79.5314H59.1696L73.868 1.22111V79.5314H88.6747V0H59.2899Z" fill="white"/>
<path d="M0 0V79.5314H14.8067V0.941397L29.5562 79.5314H44.3629L29.4359 0H0Z" fill="white"/>
<path d="M160.058 64.7247H145.252V79.5314H160.058V64.7247Z" fill="white"/>
<path d="M303.346 0H288.539V14.8067H303.346V0Z" fill="white"/>
<path d="M391.582 0L358.404 7.40183V14.8067H391.582V0Z" fill="white"/>
<path d="M242.925 0L227.998 79.5314H242.805L257.503 1.22111V79.5314H272.31V0H242.925Z" fill="white"/>
<path d="M183.635 0V79.5314H198.442V0.941397L213.192 79.5314H227.998L213.071 0H183.635Z" fill="white"/>
</svg>
